<!DOCTYPE svg PUBLIC "-//W3C//DTD SVG 1.1//EN" "http://www.w3.org/Graphics/SVG/1.1/DTD/svg11.dtd">
<!-- Uploaded to: SVG Repo, www.svgrepo.com, Transformed by: SVG Repo Mixer Tools -->
<svg fill="#cdd6f4" height="800px" width="800px" version="1.1" id="Layer_1" xmlns="http://www.w3.org/2000/svg" xmlns:xlink="http://www.w3.org/1999/xlink" viewBox="0 0 512 512" xml:space="preserve" stroke="#cdd6f4">
<g id="SVGRepo_bgCarrier" stroke-width="0"/>
<g id="SVGRepo_tracerCarrier" stroke-linecap="round" stroke-linejoin="round"/>
<g id="SVGRepo_iconCarrier"> <g transform="translate(1 1)"> <g> <g> <path d="M502.467-1H7.533C2.413-1-1,2.413-1,7.533v204.8v204.8v85.333c0,5.12,3.413,8.533,8.533,8.533h204.8h85.333h204.8 c5.12,0,8.533-3.413,8.533-8.533v-85.333v-204.8V7.533C511,2.413,507.587-1,502.467-1z M297.667,408.6h-46.08 c3.413-11.093,3.413-23.04,0-34.133h11.947h153.6c9.387,0,17.067,7.68,17.067,17.067c0,9.387-7.68,17.067-17.067,17.067H297.667z M251.587,272.067h165.547c9.387,0,17.067,7.68,17.067,17.067s-7.68,17.067-17.067,17.067H251.587 C255,295.107,255,283.16,251.587,272.067z M277.187,323.267h139.947h25.6c9.387,0,17.067,7.68,17.067,17.067 s-7.68,17.067-17.067,17.067H277.187C280.6,346.307,280.6,334.36,277.187,323.267z M446.043,374.311 c17.235-1.589,30.824-15.468,30.824-33.125c0-17.534-13.399-32.085-30.463-33.932c3.083-4.995,4.863-10.884,4.863-17.268 c0-18.773-15.36-34.133-34.133-34.133h-179.2c-3.413,0-5.973,1.707-7.68,4.267s-1.707,5.973,0,8.533 c8.533,12.8,8.533,29.013,0,41.813c-1.707,2.56-1.707,5.973,0,8.533s4.267,4.267,7.68,4.267h19.925 c5.828,11.025,5.828,23.961,0,34.987h-19.925c-3.413,0-5.973,1.707-7.68,4.267s-1.707,5.973,0,8.533 c7.611,11.417,8.414,25.543,2.448,37.547h-20.368H203.8v-128v-34.133c0-5.12-3.413-8.533-8.533-8.533H127 c-5.12,0-8.533,3.413-8.533,8.533V255H58.733c-5.12,0-8.533,3.413-8.533,8.533v34.133V408.6H16.067V220.867h25.6h51.2h51.2h51.2 h51.2h247.467V408.6h-46.906c2.698-4.762,4.239-10.273,4.239-16.213C451.267,385.759,449.346,379.562,446.043,374.311z M67.267,408.6V306.2h51.2v102.4H67.267z M186.733,272.067h-51.2v-8.533V255h51.2V272.067z M118.467,280.6v8.533h-51.2v-17.067 h51.2V280.6z M135.533,297.667v-8.533h51.2V408.6h-51.2V297.667z M50.2,118.467h34.133V127v76.8H50.2V118.467z M257.56,63 l30.72-14.507l7.285,14.57L264.96,77.8L257.56,63z M255,97.087L309.098,203.8H255V97.087z M327.533,201.24L272.92,93.72 l31.573-14.507l51.2,107.52L327.533,201.24z M237.933,203.8H203.8v-93.867v-25.6h34.133V203.8z M152.6,203.8V127v-8.533h34.133 V203.8H152.6z M101.4,203.8v-68.267h34.133V203.8H101.4z M237.933,67.267H203.8V50.2h34.133V67.267z M186.733,101.4H152.6v-8.533 v-8.533h34.133V101.4z M135.533,109.933v8.533H101.4v-8.533V101.4h34.133V109.933z M84.333,92.867v8.533H50.2V84.333h34.133 V92.867z M16.067,16.067h477.867V203.8H357.4l11.947-5.973c4.267-1.707,5.973-6.827,4.267-11.093l-58.88-122.88l-14.507-30.72 c-0.853-2.56-2.56-3.413-4.267-4.267c-2.56-0.853-5.12-0.853-6.827,0L255,45.301v-3.635c0-5.12-3.413-8.533-8.533-8.533h-51.2 c-5.12,0-8.533,3.413-8.533,8.533v25.6h-42.667c-5.12,0-8.533,3.413-8.533,8.533v8.533H101.4V75.8 c0-5.12-3.413-8.533-8.533-8.533h-51.2c-5.12,0-8.533,3.413-8.533,8.533v34.133V203.8H16.067V16.067z M16.067,425.667h42.667H127 h68.267h8.533v68.267H16.067V425.667z M220.867,425.667h17.067h51.2v68.267h-68.267V425.667z M493.933,493.933H306.2v-68.267 h110.933h76.8V493.933z"/> <path d="M109.933,451.267c-5.12,0-8.533,3.413-8.533,8.533c0,5.12,3.413,8.533,8.533,8.533s8.533-3.413,8.533-8.533 C118.467,455.533,115.053,451.267,109.933,451.267z"/> <path d="M400.067,451.267c-5.12,0-8.533,3.413-8.533,8.533c0,5.12,3.413,8.533,8.533,8.533c5.12,0,8.533-3.413,8.533-8.533 C408.6,455.533,405.187,451.267,400.067,451.267z"/> <path d="M92.867,323.267c-5.12,0-8.533,3.413-8.533,8.533V383c0,5.12,3.413,8.533,8.533,8.533c5.12,0,8.533-3.413,8.533-8.533 v-51.2C101.4,326.68,97.987,323.267,92.867,323.267z"/> <path d="M161.133,306.2c-5.12,0-8.533,3.413-8.533,8.533V383c0,5.12,3.413,8.533,8.533,8.533s8.533-3.413,8.533-8.533v-68.267 C169.667,309.613,166.253,306.2,161.133,306.2z"/> </g> </g> </g> </g>
</svg>